<svg xmlns="http://www.w3.org/2000/svg" xmlns:xlink="http://www.w3.org/1999/xlink" width="600" height="400" viewBox="0 0 2400 1600">
<defs>
  <clipPath id="clip100">
    <rect x="0" y="0" width="2400" height="1600"></rect>
  </clipPath>
</defs>
<path clip-path="url(#clip100)" d="M0 1600 L2400 1600 L2400 0 L0 0  Z" fill="#ffffff" fill-rule="evenodd" fill-opacity="1"></path>
<defs>
  <clipPath id="clip101">
    <rect x="480" y="0" width="1681" height="1600"></rect>
  </clipPath>
</defs>
<path clip-path="url(#clip100)" d="M306.922 1486.45 L2352.76 1486.45 L2352.76 47.2441 L306.922 47.2441  Z" fill="#ffffff" fill-rule="evenodd" fill-opacity="1"></path>
<defs>
  <clipPath id="clip102">
    <rect x="306" y="47" width="2047" height="1440"></rect>
  </clipPath>
</defs>
<polyline clip-path="url(#clip102)" style="stroke:#000000; stroke-linecap:round; stroke-linejoin:round; stroke-width:2; stroke-opacity:0.1; fill:none" points="622.16,1486.45 622.16,47.2441 "></polyline>
<polyline clip-path="url(#clip102)" style="stroke:#000000; stroke-linecap:round; stroke-linejoin:round; stroke-width:2; stroke-opacity:0.1; fill:none" points="1008.17,1486.45 1008.17,47.2441 "></polyline>
<polyline clip-path="url(#clip102)" style="stroke:#000000; stroke-linecap:round; stroke-linejoin:round; stroke-width:2; stroke-opacity:0.1; fill:none" points="1394.17,1486.45 1394.17,47.2441 "></polyline>
<polyline clip-path="url(#clip102)" style="stroke:#000000; stroke-linecap:round; stroke-linejoin:round; stroke-width:2; stroke-opacity:0.1; fill:none" points="1780.18,1486.45 1780.18,47.2441 "></polyline>
<polyline clip-path="url(#clip102)" style="stroke:#000000; stroke-linecap:round; stroke-linejoin:round; stroke-width:2; stroke-opacity:0.1; fill:none" points="2166.19,1486.45 2166.19,47.2441 "></polyline>
<polyline clip-path="url(#clip100)" style="stroke:#000000; stroke-linecap:round; stroke-linejoin:round; stroke-width:4; stroke-opacity:1; fill:none" points="306.922,1486.45 2352.76,1486.45 "></polyline>
<polyline clip-path="url(#clip100)" style="stroke:#000000; stroke-linecap:round; stroke-linejoin:round; stroke-width:4; stroke-opacity:1; fill:none" points="622.16,1486.45 622.16,1467.55 "></polyline>
<polyline clip-path="url(#clip100)" style="stroke:#000000; stroke-linecap:round; stroke-linejoin:round; stroke-width:4; stroke-opacity:1; fill:none" points="1008.17,1486.45 1008.17,1467.55 "></polyline>
<polyline clip-path="url(#clip100)" style="stroke:#000000; stroke-linecap:round; stroke-linejoin:round; stroke-width:4; stroke-opacity:1; fill:none" points="1394.17,1486.45 1394.17,1467.55 "></polyline>
<polyline clip-path="url(#clip100)" style="stroke:#000000; stroke-linecap:round; stroke-linejoin:round; stroke-width:4; stroke-opacity:1; fill:none" points="1780.18,1486.45 1780.18,1467.55 "></polyline>
<polyline clip-path="url(#clip100)" style="stroke:#000000; stroke-linecap:round; stroke-linejoin:round; stroke-width:4; stroke-opacity:1; fill:none" points="2166.19,1486.45 2166.19,1467.55 "></polyline>
<path clip-path="url(#clip100)" d="M601.385 1544.91 L617.704 1544.91 L617.704 1548.85 L595.76 1548.85 L595.76 1544.91 Q598.422 1542.16 603.005 1537.53 Q607.612 1532.88 608.792 1531.53 Q611.038 1529.01 611.917 1527.27 Q612.82 1525.51 612.82 1523.82 Q612.82 1521.07 610.875 1519.33 Q608.954 1517.6 605.852 1517.6 Q603.653 1517.6 601.2 1518.36 Q598.769 1519.13 595.991 1520.68 L595.991 1515.95 Q598.815 1514.82 601.269 1514.24 Q603.723 1513.66 605.76 1513.66 Q611.13 1513.66 614.325 1516.35 Q617.519 1519.03 617.519 1523.52 Q617.519 1525.65 616.709 1527.57 Q615.922 1529.47 613.815 1532.07 Q613.237 1532.74 610.135 1535.95 Q607.033 1539.15 601.385 1544.91 Z" fill="#000000" fill-rule="nonzero" fill-opacity="1"></path><path clip-path="url(#clip100)" d="M626.338 1514.29 L648.56 1514.29 L648.56 1516.28 L636.014 1548.85 L631.13 1548.85 L642.935 1518.22 L626.338 1518.22 L626.338 1514.29 Z" fill="#000000" fill-rule="nonzero" fill-opacity="1"></path><path clip-path="url(#clip100)" d="M997.009 1530.21 Q1000.37 1530.93 1002.24 1533.2 Q1004.14 1535.47 1004.14 1538.8 Q1004.14 1543.92 1000.62 1546.72 Q997.102 1549.52 990.62 1549.52 Q988.445 1549.52 986.13 1549.08 Q983.838 1548.66 981.384 1547.81 L981.384 1543.29 Q983.329 1544.43 985.644 1545.01 Q987.958 1545.58 990.482 1545.58 Q994.88 1545.58 997.171 1543.85 Q999.486 1542.11 999.486 1538.8 Q999.486 1535.75 997.333 1534.03 Q995.204 1532.3 991.384 1532.3 L987.357 1532.3 L987.357 1528.45 L991.569 1528.45 Q995.019 1528.45 996.847 1527.09 Q998.676 1525.7 998.676 1523.11 Q998.676 1520.45 996.778 1519.03 Q994.903 1517.6 991.384 1517.6 Q989.463 1517.6 987.264 1518.01 Q985.065 1518.43 982.426 1519.31 L982.426 1515.14 Q985.088 1514.4 987.403 1514.03 Q989.741 1513.66 991.801 1513.66 Q997.125 1513.66 1000.23 1516.09 Q1003.33 1518.5 1003.33 1522.62 Q1003.33 1525.49 1001.69 1527.48 Q1000.04 1529.45 997.009 1530.21 Z" fill="#000000" fill-rule="nonzero" fill-opacity="1"></path><path clip-path="url(#clip100)" d="M1023 1517.37 Q1019.39 1517.37 1017.56 1520.93 Q1015.76 1524.47 1015.76 1531.6 Q1015.76 1538.71 1017.56 1542.27 Q1019.39 1545.82 1023 1545.82 Q1026.64 1545.82 1028.44 1542.27 Q1030.27 1538.71 1030.27 1531.6 Q1030.27 1524.47 1028.44 1520.93 Q1026.64 1517.37 1023 1517.37 M1023 1513.66 Q1028.81 1513.66 1031.87 1518.27 Q1034.95 1522.85 1034.95 1531.6 Q1034.95 1540.33 1031.87 1544.94 Q1028.81 1549.52 1023 1549.52 Q1017.19 1549.52 1014.12 1544.94 Q1011.06 1540.33 1011.06 1531.6 Q1011.06 1522.85 1014.12 1518.27 Q1017.19 1513.66 1023 1513.66 Z" fill="#000000" fill-rule="nonzero" fill-opacity="1"></path><path clip-path="url(#clip100)" d="M1383.34 1530.21 Q1386.7 1530.93 1388.57 1533.2 Q1390.47 1535.47 1390.47 1538.8 Q1390.47 1543.92 1386.95 1546.72 Q1383.43 1549.52 1376.95 1549.52 Q1374.78 1549.52 1372.46 1549.08 Q1370.17 1548.66 1367.71 1547.81 L1367.71 1543.29 Q1369.66 1544.43 1371.97 1545.01 Q1374.29 1545.58 1376.81 1545.58 Q1381.21 1545.58 1383.5 1543.85 Q1385.82 1542.11 1385.82 1538.8 Q1385.82 1535.75 1383.66 1534.03 Q1381.53 1532.3 1377.71 1532.3 L1373.69 1532.3 L1373.69 1528.45 L1377.9 1528.45 Q1381.35 1528.45 1383.18 1527.09 Q1385.01 1525.7 1385.01 1523.11 Q1385.01 1520.45 1383.11 1519.03 Q1381.23 1517.6 1377.71 1517.6 Q1375.79 1517.6 1373.59 1518.01 Q1371.4 1518.43 1368.76 1519.31 L1368.76 1515.14 Q1371.42 1514.4 1373.73 1514.03 Q1376.07 1513.66 1378.13 1513.66 Q1383.46 1513.66 1386.56 1516.09 Q1389.66 1518.5 1389.66 1522.62 Q1389.66 1525.49 1388.02 1527.48 Q1386.37 1529.45 1383.34 1530.21 Z" fill="#000000" fill-rule="nonzero" fill-opacity="1"></path><path clip-path="url(#clip100)" d="M1413.5 1530.21 Q1416.86 1530.93 1418.73 1533.2 Q1420.63 1535.47 1420.63 1538.8 Q1420.63 1543.92 1417.11 1546.72 Q1413.59 1549.52 1407.11 1549.52 Q1404.94 1549.52 1402.62 1549.08 Q1400.33 1548.66 1397.88 1547.81 L1397.88 1543.29 Q1399.82 1544.43 1402.14 1545.01 Q1404.45 1545.58 1406.97 1545.58 Q1411.37 1545.58 1413.66 1543.85 Q1415.98 1542.11 1415.98 1538.8 Q1415.98 1535.75 1413.83 1534.03 Q1411.7 1532.3 1407.88 1532.3 L1403.85 1532.3 L1403.85 1528.45 L1408.06 1528.45 Q1411.51 1528.45 1413.34 1527.09 Q1415.17 1525.7 1415.17 1523.11 Q1415.17 1520.45 1413.27 1519.03 Q1411.4 1517.6 1407.88 1517.6 Q1405.96 1517.6 1403.76 1518.01 Q1401.56 1518.43 1398.92 1519.31 L1398.92 1515.14 Q1401.58 1514.4 1403.9 1514.03 Q1406.23 1513.66 1408.29 1513.66 Q1413.62 1513.66 1416.72 1516.09 Q1419.82 1518.5 1419.82 1522.62 Q1419.82 1525.49 1418.18 1527.48 Q1416.53 1529.45 1413.5 1530.21 Z" fill="#000000" fill-rule="nonzero" fill-opacity="1"></path><path clip-path="url(#clip100)" d="M1768.94 1530.21 Q1772.3 1530.93 1774.17 1533.2 Q1776.07 1535.47 1776.07 1538.8 Q1776.07 1543.92 1772.55 1546.72 Q1769.03 1549.52 1762.55 1549.52 Q1760.38 1549.52 1758.06 1549.08 Q1755.77 1548.66 1753.32 1547.81 L1753.32 1543.29 Q1755.26 1544.43 1757.58 1545.01 Q1759.89 1545.58 1762.41 1545.58 Q1766.81 1545.58 1769.1 1543.85 Q1771.42 1542.11 1771.42 1538.8 Q1771.42 1535.75 1769.27 1534.03 Q1767.14 1532.3 1763.32 1532.3 L1759.29 1532.3 L1759.29 1528.45 L1763.5 1528.45 Q1766.95 1528.45 1768.78 1527.09 Q1770.61 1525.7 1770.61 1523.11 Q1770.61 1520.45 1768.71 1519.03 Q1766.83 1517.6 1763.32 1517.6 Q1761.39 1517.6 1759.2 1518.01 Q1757 1518.43 1754.36 1519.31 L1754.36 1515.14 Q1757.02 1514.4 1759.33 1514.03 Q1761.67 1513.66 1763.73 1513.66 Q1769.06 1513.66 1772.16 1516.09 Q1775.26 1518.5 1775.26 1522.62 Q1775.26 1525.49 1773.62 1527.48 Q1771.97 1529.45 1768.94 1530.21 Z" fill="#000000" fill-rule="nonzero" fill-opacity="1"></path><path clip-path="url(#clip100)" d="M1795.52 1529.7 Q1792.37 1529.7 1790.52 1531.86 Q1788.69 1534.01 1788.69 1537.76 Q1788.69 1541.49 1790.52 1543.66 Q1792.37 1545.82 1795.52 1545.82 Q1798.66 1545.82 1800.49 1543.66 Q1802.34 1541.49 1802.34 1537.76 Q1802.34 1534.01 1800.49 1531.86 Q1798.66 1529.7 1795.52 1529.7 M1804.8 1515.05 L1804.8 1519.31 Q1803.04 1518.48 1801.23 1518.04 Q1799.45 1517.6 1797.69 1517.6 Q1793.06 1517.6 1790.61 1520.72 Q1788.18 1523.85 1787.83 1530.17 Q1789.2 1528.15 1791.26 1527.09 Q1793.32 1526 1795.79 1526 Q1801 1526 1804.01 1529.17 Q1807.04 1532.32 1807.04 1537.76 Q1807.04 1543.08 1803.89 1546.3 Q1800.75 1549.52 1795.52 1549.52 Q1789.52 1549.52 1786.35 1544.94 Q1783.18 1540.33 1783.18 1531.6 Q1783.18 1523.41 1787.07 1518.55 Q1790.96 1513.66 1797.51 1513.66 Q1799.27 1513.66 1801.05 1514.01 Q1802.85 1514.36 1804.8 1515.05 Z" fill="#000000" fill-rule="nonzero" fill-opacity="1"></path><path clip-path="url(#clip100)" d="M2155.12 1530.21 Q2158.48 1530.93 2160.35 1533.2 Q2162.25 1535.47 2162.25 1538.8 Q2162.25 1543.92 2158.73 1546.72 Q2155.21 1549.52 2148.73 1549.52 Q2146.56 1549.52 2144.24 1549.08 Q2141.95 1548.66 2139.5 1547.81 L2139.5 1543.29 Q2141.44 1544.43 2143.76 1545.01 Q2146.07 1545.58 2148.59 1545.58 Q2152.99 1545.58 2155.28 1543.85 Q2157.6 1542.11 2157.6 1538.8 Q2157.6 1535.75 2155.45 1534.03 Q2153.32 1532.3 2149.5 1532.3 L2145.47 1532.3 L2145.47 1528.45 L2149.68 1528.45 Q2153.13 1528.45 2154.96 1527.09 Q2156.79 1525.7 2156.79 1523.11 Q2156.79 1520.45 2154.89 1519.03 Q2153.01 1517.6 2149.5 1517.6 Q2147.58 1517.6 2145.38 1518.01 Q2143.18 1518.43 2140.54 1519.31 L2140.54 1515.14 Q2143.2 1514.4 2145.51 1514.03 Q2147.85 1513.66 2149.91 1513.66 Q2155.24 1513.66 2158.34 1516.09 Q2161.44 1518.5 2161.44 1522.62 Q2161.44 1525.49 2159.8 1527.48 Q2158.15 1529.45 2155.12 1530.21 Z" fill="#000000" fill-rule="nonzero" fill-opacity="1"></path><path clip-path="url(#clip100)" d="M2171.26 1548.13 L2171.26 1543.87 Q2173.01 1544.7 2174.82 1545.14 Q2176.63 1545.58 2178.36 1545.58 Q2182.99 1545.58 2185.42 1542.48 Q2187.88 1539.36 2188.22 1533.01 Q2186.88 1535.01 2184.82 1536.07 Q2182.76 1537.13 2180.26 1537.13 Q2175.07 1537.13 2172.04 1534.01 Q2169.03 1530.86 2169.03 1525.42 Q2169.03 1520.1 2172.18 1516.88 Q2175.33 1513.66 2180.56 1513.66 Q2186.56 1513.66 2189.7 1518.27 Q2192.88 1522.85 2192.88 1531.6 Q2192.88 1539.77 2188.99 1544.66 Q2185.12 1549.52 2178.57 1549.52 Q2176.81 1549.52 2175.01 1549.17 Q2173.2 1548.82 2171.26 1548.13 M2180.56 1533.48 Q2183.71 1533.48 2185.54 1531.32 Q2187.39 1529.17 2187.39 1525.42 Q2187.39 1521.7 2185.54 1519.54 Q2183.71 1517.37 2180.56 1517.37 Q2177.41 1517.37 2175.56 1519.54 Q2173.73 1521.7 2173.73 1525.42 Q2173.73 1529.17 2175.56 1531.32 Q2177.41 1533.48 2180.56 1533.48 Z" fill="#000000" fill-rule="nonzero" fill-opacity="1"></path><polyline clip-path="url(#clip102)" style="stroke:#000000; stroke-linecap:round; stroke-linejoin:round; stroke-width:2; stroke-opacity:0.1; fill:none" points="306.922,1445.77 2352.76,1445.77 "></polyline>
<polyline clip-path="url(#clip102)" style="stroke:#000000; stroke-linecap:round; stroke-linejoin:round; stroke-width:2; stroke-opacity:0.1; fill:none" points="306.922,1165.22 2352.76,1165.22 "></polyline>
<polyline clip-path="url(#clip102)" style="stroke:#000000; stroke-linecap:round; stroke-linejoin:round; stroke-width:2; stroke-opacity:0.1; fill:none" points="306.922,884.664 2352.76,884.664 "></polyline>
<polyline clip-path="url(#clip102)" style="stroke:#000000; stroke-linecap:round; stroke-linejoin:round; stroke-width:2; stroke-opacity:0.1; fill:none" points="306.922,604.111 2352.76,604.111 "></polyline>
<polyline clip-path="url(#clip102)" style="stroke:#000000; stroke-linecap:round; stroke-linejoin:round; stroke-width:2; stroke-opacity:0.1; fill:none" points="306.922,323.558 2352.76,323.558 "></polyline>
<polyline clip-path="url(#clip100)" style="stroke:#000000; stroke-linecap:round; stroke-linejoin:round; stroke-width:4; stroke-opacity:1; fill:none" points="306.922,1486.45 306.922,47.2441 "></polyline>
<polyline clip-path="url(#clip100)" style="stroke:#000000; stroke-linecap:round; stroke-linejoin:round; stroke-width:4; stroke-opacity:1; fill:none" points="306.922,1445.77 325.819,1445.77 "></polyline>
<polyline clip-path="url(#clip100)" style="stroke:#000000; stroke-linecap:round; stroke-linejoin:round; stroke-width:4; stroke-opacity:1; fill:none" points="306.922,1165.22 325.819,1165.22 "></polyline>
<polyline clip-path="url(#clip100)" style="stroke:#000000; stroke-linecap:round; stroke-linejoin:round; stroke-width:4; stroke-opacity:1; fill:none" points="306.922,884.664 325.819,884.664 "></polyline>
<polyline clip-path="url(#clip100)" style="stroke:#000000; stroke-linecap:round; stroke-linejoin:round; stroke-width:4; stroke-opacity:1; fill:none" points="306.922,604.111 325.819,604.111 "></polyline>
<polyline clip-path="url(#clip100)" style="stroke:#000000; stroke-linecap:round; stroke-linejoin:round; stroke-width:4; stroke-opacity:1; fill:none" points="306.922,323.558 325.819,323.558 "></polyline>
<path clip-path="url(#clip100)" d="M62.9365 1431.57 Q59.3254 1431.57 57.4967 1435.13 Q55.6912 1438.67 55.6912 1445.8 Q55.6912 1452.91 57.4967 1456.48 Q59.3254 1460.02 62.9365 1460.02 Q66.5707 1460.02 68.3763 1456.48 Q70.205 1452.91 70.205 1445.8 Q70.205 1438.67 68.3763 1435.13 Q66.5707 1431.57 62.9365 1431.57 M62.9365 1427.86 Q68.7467 1427.86 71.8022 1432.47 Q74.8809 1437.05 74.8809 1445.8 Q74.8809 1454.53 71.8022 1459.14 Q68.7467 1463.72 62.9365 1463.72 Q57.1264 1463.72 54.0477 1459.14 Q50.9921 1454.53 50.9921 1445.8 Q50.9921 1437.05 54.0477 1432.47 Q57.1264 1427.86 62.9365 1427.86 Z" fill="#000000" fill-rule="nonzero" fill-opacity="1"></path><path clip-path="url(#clip100)" d="M83.0984 1457.17 L87.9827 1457.17 L87.9827 1463.05 L83.0984 1463.05 L83.0984 1457.17 Z" fill="#000000" fill-rule="nonzero" fill-opacity="1"></path><path clip-path="url(#clip100)" d="M108.168 1431.57 Q104.557 1431.57 102.728 1435.13 Q100.922 1438.67 100.922 1445.8 Q100.922 1452.91 102.728 1456.48 Q104.557 1460.02 108.168 1460.02 Q111.802 1460.02 113.608 1456.48 Q115.436 1452.91 115.436 1445.8 Q115.436 1438.67 113.608 1435.13 Q111.802 1431.57 108.168 1431.57 M108.168 1427.86 Q113.978 1427.86 117.033 1432.47 Q120.112 1437.05 120.112 1445.8 Q120.112 1454.53 117.033 1459.14 Q113.978 1463.72 108.168 1463.72 Q102.358 1463.72 99.2789 1459.14 Q96.2234 1454.53 96.2234 1445.8 Q96.2234 1437.05 99.2789 1432.47 Q102.358 1427.86 108.168 1427.86 Z" fill="#000000" fill-rule="nonzero" fill-opacity="1"></path><path clip-path="url(#clip100)" d="M138.33 1431.57 Q134.719 1431.57 132.89 1435.13 Q131.084 1438.67 131.084 1445.8 Q131.084 1452.91 132.89 1456.48 Q134.719 1460.02 138.33 1460.02 Q141.964 1460.02 143.769 1456.48 Q145.598 1452.91 145.598 1445.8 Q145.598 1438.67 143.769 1435.13 Q141.964 1431.57 138.33 1431.57 M138.33 1427.86 Q144.14 1427.86 147.195 1432.47 Q150.274 1437.05 150.274 1445.8 Q150.274 1454.53 147.195 1459.14 Q144.14 1463.72 138.33 1463.72 Q132.519 1463.72 129.441 1459.14 Q126.385 1454.53 126.385 1445.8 Q126.385 1437.05 129.441 1432.47 Q132.519 1427.86 138.33 1427.86 Z" fill="#000000" fill-rule="nonzero" fill-opacity="1"></path><path clip-path="url(#clip100)" d="M168.491 1431.57 Q164.88 1431.57 163.052 1435.13 Q161.246 1438.67 161.246 1445.8 Q161.246 1452.91 163.052 1456.48 Q164.88 1460.02 168.491 1460.02 Q172.126 1460.02 173.931 1456.48 Q175.76 1452.91 175.76 1445.8 Q175.76 1438.67 173.931 1435.13 Q172.126 1431.57 168.491 1431.57 M168.491 1427.86 Q174.302 1427.86 177.357 1432.47 Q180.436 1437.05 180.436 1445.8 Q180.436 1454.53 177.357 1459.14 Q174.302 1463.72 168.491 1463.72 Q162.681 1463.72 159.603 1459.14 Q156.547 1454.53 156.547 1445.8 Q156.547 1437.05 159.603 1432.47 Q162.681 1427.86 168.491 1427.86 Z" fill="#000000" fill-rule="nonzero" fill-opacity="1"></path><path clip-path="url(#clip100)" d="M198.653 1431.57 Q195.042 1431.57 193.214 1435.13 Q191.408 1438.67 191.408 1445.8 Q191.408 1452.91 193.214 1456.48 Q195.042 1460.02 198.653 1460.02 Q202.288 1460.02 204.093 1456.48 Q205.922 1452.91 205.922 1445.8 Q205.922 1438.67 204.093 1435.13 Q202.288 1431.57 198.653 1431.57 M198.653 1427.86 Q204.464 1427.86 207.519 1432.47 Q210.598 1437.05 210.598 1445.8 Q210.598 1454.53 207.519 1459.14 Q204.464 1463.72 198.653 1463.72 Q192.843 1463.72 189.765 1459.14 Q186.709 1454.53 186.709 1445.8 Q186.709 1437.05 189.765 1432.47 Q192.843 1427.86 198.653 1427.86 Z" fill="#000000" fill-rule="nonzero" fill-opacity="1"></path><path clip-path="url(#clip100)" d="M228.815 1431.57 Q225.204 1431.57 223.375 1435.13 Q221.57 1438.67 221.57 1445.8 Q221.57 1452.91 223.375 1456.48 Q225.204 1460.02 228.815 1460.02 Q232.449 1460.02 234.255 1456.48 Q236.084 1452.91 236.084 1445.8 Q236.084 1438.67 234.255 1435.13 Q232.449 1431.57 228.815 1431.57 M228.815 1427.86 Q234.625 1427.86 237.681 1432.47 Q240.76 1437.05 240.76 1445.8 Q240.76 1454.53 237.681 1459.14 Q234.625 1463.72 228.815 1463.72 Q223.005 1463.72 219.926 1459.14 Q216.871 1454.53 216.871 1445.8 Q216.871 1437.05 219.926 1432.47 Q223.005 1427.86 228.815 1427.86 Z" fill="#000000" fill-rule="nonzero" fill-opacity="1"></path><path clip-path="url(#clip100)" d="M258.977 1431.57 Q255.366 1431.57 253.537 1435.13 Q251.732 1438.67 251.732 1445.8 Q251.732 1452.91 253.537 1456.48 Q255.366 1460.02 258.977 1460.02 Q262.611 1460.02 264.417 1456.48 Q266.246 1452.91 266.246 1445.8 Q266.246 1438.67 264.417 1435.13 Q262.611 1431.57 258.977 1431.57 M258.977 1427.86 Q264.787 1427.86 267.843 1432.47 Q270.922 1437.05 270.922 1445.8 Q270.922 1454.53 267.843 1459.14 Q264.787 1463.72 258.977 1463.72 Q253.167 1463.72 250.088 1459.14 Q247.033 1454.53 247.033 1445.8 Q247.033 1437.05 250.088 1432.47 Q253.167 1427.86 258.977 1427.86 Z" fill="#000000" fill-rule="nonzero" fill-opacity="1"></path><path clip-path="url(#clip100)" d="M63.9319 1151.02 Q60.3208 1151.02 58.4921 1154.58 Q56.6865 1158.12 56.6865 1165.25 Q56.6865 1172.36 58.4921 1175.92 Q60.3208 1179.46 63.9319 1179.46 Q67.5661 1179.46 69.3717 1175.92 Q71.2004 1172.36 71.2004 1165.25 Q71.2004 1158.12 69.3717 1154.58 Q67.5661 1151.02 63.9319 1151.02 M63.9319 1147.31 Q69.742 1147.31 72.7976 1151.92 Q75.8763 1156.5 75.8763 1165.25 Q75.8763 1173.98 72.7976 1178.58 Q69.742 1183.17 63.9319 1183.17 Q58.1217 1183.17 55.043 1178.58 Q51.9875 1173.98 51.9875 1165.25 Q51.9875 1156.5 55.043 1151.92 Q58.1217 1147.31 63.9319 1147.31 Z" fill="#000000" fill-rule="nonzero" fill-opacity="1"></path><path clip-path="url(#clip100)" d="M84.0938 1176.62 L88.978 1176.62 L88.978 1182.5 L84.0938 1182.5 L84.0938 1176.62 Z" fill="#000000" fill-rule="nonzero" fill-opacity="1"></path><path clip-path="url(#clip100)" d="M109.163 1151.02 Q105.552 1151.02 103.723 1154.58 Q101.918 1158.12 101.918 1165.25 Q101.918 1172.36 103.723 1175.92 Q105.552 1179.46 109.163 1179.46 Q112.797 1179.46 114.603 1175.92 Q116.432 1172.36 116.432 1165.25 Q116.432 1158.12 114.603 1154.58 Q112.797 1151.02 109.163 1151.02 M109.163 1147.31 Q114.973 1147.31 118.029 1151.92 Q121.107 1156.5 121.107 1165.25 Q121.107 1173.98 118.029 1178.58 Q114.973 1183.17 109.163 1183.17 Q103.353 1183.17 100.274 1178.58 Q97.2187 1173.98 97.2187 1165.25 Q97.2187 1156.5 100.274 1151.92 Q103.353 1147.31 109.163 1147.31 Z" fill="#000000" fill-rule="nonzero" fill-opacity="1"></path><path clip-path="url(#clip100)" d="M139.325 1151.02 Q135.714 1151.02 133.885 1154.58 Q132.08 1158.12 132.08 1165.25 Q132.08 1172.36 133.885 1175.92 Q135.714 1179.46 139.325 1179.46 Q142.959 1179.46 144.765 1175.92 Q146.593 1172.36 146.593 1165.25 Q146.593 1158.12 144.765 1154.58 Q142.959 1151.02 139.325 1151.02 M139.325 1147.31 Q145.135 1147.31 148.191 1151.92 Q151.269 1156.5 151.269 1165.25 Q151.269 1173.98 148.191 1178.58 Q145.135 1183.17 139.325 1183.17 Q133.515 1183.17 130.436 1178.58 Q127.381 1173.98 127.381 1165.25 Q127.381 1156.5 130.436 1151.92 Q133.515 1147.31 139.325 1147.31 Z" fill="#000000" fill-rule="nonzero" fill-opacity="1"></path><path clip-path="url(#clip100)" d="M169.487 1151.02 Q165.876 1151.02 164.047 1154.58 Q162.242 1158.12 162.242 1165.25 Q162.242 1172.36 164.047 1175.92 Q165.876 1179.46 169.487 1179.46 Q173.121 1179.46 174.927 1175.92 Q176.755 1172.36 176.755 1165.25 Q176.755 1158.12 174.927 1154.58 Q173.121 1151.02 169.487 1151.02 M169.487 1147.31 Q175.297 1147.31 178.353 1151.92 Q181.431 1156.5 181.431 1165.25 Q181.431 1173.98 178.353 1178.58 Q175.297 1183.17 169.487 1183.17 Q163.677 1183.17 160.598 1178.58 Q157.542 1173.98 157.542 1165.25 Q157.542 1156.5 160.598 1151.92 Q163.677 1147.31 169.487 1147.31 Z" fill="#000000" fill-rule="nonzero" fill-opacity="1"></path><path clip-path="url(#clip100)" d="M199.649 1151.02 Q196.038 1151.02 194.209 1154.58 Q192.403 1158.12 192.403 1165.25 Q192.403 1172.36 194.209 1175.92 Q196.038 1179.46 199.649 1179.46 Q203.283 1179.46 205.089 1175.92 Q206.917 1172.36 206.917 1165.25 Q206.917 1158.12 205.089 1154.58 Q203.283 1151.02 199.649 1151.02 M199.649 1147.31 Q205.459 1147.31 208.514 1151.92 Q211.593 1156.5 211.593 1165.25 Q211.593 1173.98 208.514 1178.58 Q205.459 1183.17 199.649 1183.17 Q193.839 1183.17 190.76 1178.58 Q187.704 1173.98 187.704 1165.25 Q187.704 1156.5 190.76 1151.92 Q193.839 1147.31 199.649 1147.31 Z" fill="#000000" fill-rule="nonzero" fill-opacity="1"></path><path clip-path="url(#clip100)" d="M223.838 1178.56 L240.158 1178.56 L240.158 1182.5 L218.213 1182.5 L218.213 1178.56 Q220.875 1175.81 225.459 1171.18 Q230.065 1166.52 231.246 1165.18 Q233.491 1162.66 234.371 1160.92 Q235.274 1159.16 235.274 1157.47 Q235.274 1154.72 233.329 1152.98 Q231.408 1151.25 228.306 1151.25 Q226.107 1151.25 223.653 1152.01 Q221.223 1152.77 218.445 1154.33 L218.445 1149.6 Q221.269 1148.47 223.723 1147.89 Q226.176 1147.31 228.213 1147.31 Q233.584 1147.31 236.778 1150 Q239.973 1152.68 239.973 1157.17 Q239.973 1159.3 239.162 1161.22 Q238.375 1163.12 236.269 1165.71 Q235.69 1166.39 232.588 1169.6 Q229.487 1172.8 223.838 1178.56 Z" fill="#000000" fill-rule="nonzero" fill-opacity="1"></path><path clip-path="url(#clip100)" d="M250.019 1147.94 L268.375 1147.94 L268.375 1151.87 L254.301 1151.87 L254.301 1160.34 Q255.32 1160 256.338 1159.83 Q257.357 1159.65 258.375 1159.65 Q264.162 1159.65 267.542 1162.82 Q270.922 1165.99 270.922 1171.41 Q270.922 1176.99 267.449 1180.09 Q263.977 1183.17 257.658 1183.17 Q255.482 1183.17 253.213 1182.8 Q250.968 1182.43 248.561 1181.69 L248.561 1176.99 Q250.644 1178.12 252.866 1178.68 Q255.088 1179.23 257.565 1179.23 Q261.57 1179.23 263.908 1177.13 Q266.246 1175.02 266.246 1171.41 Q266.246 1167.8 263.908 1165.69 Q261.57 1163.58 257.565 1163.58 Q255.69 1163.58 253.815 1164 Q251.963 1164.42 250.019 1165.3 L250.019 1147.94 Z" fill="#000000" fill-rule="nonzero" fill-opacity="1"></path><path clip-path="url(#clip100)" d="M62.9365 870.462 Q59.3254 870.462 57.4967 874.027 Q55.6912 877.569 55.6912 884.699 Q55.6912 891.805 57.4967 895.37 Q59.3254 898.911 62.9365 898.911 Q66.5707 898.911 68.3763 895.37 Q70.205 891.805 70.205 884.699 Q70.205 877.569 68.3763 874.027 Q66.5707 870.462 62.9365 870.462 M62.9365 866.759 Q68.7467 866.759 71.8022 871.365 Q74.8809 875.949 74.8809 884.699 Q74.8809 893.425 71.8022 898.032 Q68.7467 902.615 62.9365 902.615 Q57.1264 902.615 54.0477 898.032 Q50.9921 893.425 50.9921 884.699 Q50.9921 875.949 54.0477 871.365 Q57.1264 866.759 62.9365 866.759 Z" fill="#000000" fill-rule="nonzero" fill-opacity="1"></path><path clip-path="url(#clip100)" d="M83.0984 896.064 L87.9827 896.064 L87.9827 901.944 L83.0984 901.944 L83.0984 896.064 Z" fill="#000000" fill-rule="nonzero" fill-opacity="1"></path><path clip-path="url(#clip100)" d="M108.168 870.462 Q104.557 870.462 102.728 874.027 Q100.922 877.569 100.922 884.699 Q100.922 891.805 102.728 895.37 Q104.557 898.911 108.168 898.911 Q111.802 898.911 113.608 895.37 Q115.436 891.805 115.436 884.699 Q115.436 877.569 113.608 874.027 Q111.802 870.462 108.168 870.462 M108.168 866.759 Q113.978 866.759 117.033 871.365 Q120.112 875.949 120.112 884.699 Q120.112 893.425 117.033 898.032 Q113.978 902.615 108.168 902.615 Q102.358 902.615 99.2789 898.032 Q96.2234 893.425 96.2234 884.699 Q96.2234 875.949 99.2789 871.365 Q102.358 866.759 108.168 866.759 Z" fill="#000000" fill-rule="nonzero" fill-opacity="1"></path><path clip-path="url(#clip100)" d="M138.33 870.462 Q134.719 870.462 132.89 874.027 Q131.084 877.569 131.084 884.699 Q131.084 891.805 132.89 895.37 Q134.719 898.911 138.33 898.911 Q141.964 898.911 143.769 895.37 Q145.598 891.805 145.598 884.699 Q145.598 877.569 143.769 874.027 Q141.964 870.462 138.33 870.462 M138.33 866.759 Q144.14 866.759 147.195 871.365 Q150.274 875.949 150.274 884.699 Q150.274 893.425 147.195 898.032 Q144.14 902.615 138.33 902.615 Q132.519 902.615 129.441 898.032 Q126.385 893.425 126.385 884.699 Q126.385 875.949 129.441 871.365 Q132.519 866.759 138.33 866.759 Z" fill="#000000" fill-rule="nonzero" fill-opacity="1"></path><path clip-path="url(#clip100)" d="M168.491 870.462 Q164.88 870.462 163.052 874.027 Q161.246 877.569 161.246 884.699 Q161.246 891.805 163.052 895.37 Q164.88 898.911 168.491 898.911 Q172.126 898.911 173.931 895.37 Q175.76 891.805 175.76 884.699 Q175.76 877.569 173.931 874.027 Q172.126 870.462 168.491 870.462 M168.491 866.759 Q174.302 866.759 177.357 871.365 Q180.436 875.949 180.436 884.699 Q180.436 893.425 177.357 898.032 Q174.302 902.615 168.491 902.615 Q162.681 902.615 159.603 898.032 Q156.547 893.425 156.547 884.699 Q156.547 875.949 159.603 871.365 Q162.681 866.759 168.491 866.759 Z" fill="#000000" fill-rule="nonzero" fill-opacity="1"></path><path clip-path="url(#clip100)" d="M198.653 870.462 Q195.042 870.462 193.214 874.027 Q191.408 877.569 191.408 884.699 Q191.408 891.805 193.214 895.37 Q195.042 898.911 198.653 898.911 Q202.288 898.911 204.093 895.37 Q205.922 891.805 205.922 884.699 Q205.922 877.569 204.093 874.027 Q202.288 870.462 198.653 870.462 M198.653 866.759 Q204.464 866.759 207.519 871.365 Q210.598 875.949 210.598 884.699 Q210.598 893.425 207.519 898.032 Q204.464 902.615 198.653 902.615 Q192.843 902.615 189.765 898.032 Q186.709 893.425 186.709 884.699 Q186.709 875.949 189.765 871.365 Q192.843 866.759 198.653 866.759 Z" fill="#000000" fill-rule="nonzero" fill-opacity="1"></path><path clip-path="url(#clip100)" d="M218.862 867.384 L237.218 867.384 L237.218 871.319 L223.144 871.319 L223.144 879.791 Q224.162 879.444 225.181 879.282 Q226.2 879.097 227.218 879.097 Q233.005 879.097 236.385 882.268 Q239.764 885.439 239.764 890.856 Q239.764 896.435 236.292 899.536 Q232.82 902.615 226.5 902.615 Q224.325 902.615 222.056 902.245 Q219.811 901.874 217.403 901.134 L217.403 896.435 Q219.487 897.569 221.709 898.124 Q223.931 898.68 226.408 898.68 Q230.412 898.68 232.75 896.573 Q235.088 894.467 235.088 890.856 Q235.088 887.245 232.75 885.138 Q230.412 883.032 226.408 883.032 Q224.533 883.032 222.658 883.449 Q220.806 883.865 218.862 884.745 L218.862 867.384 Z" fill="#000000" fill-rule="nonzero" fill-opacity="1"></path><path clip-path="url(#clip100)" d="M258.977 870.462 Q255.366 870.462 253.537 874.027 Q251.732 877.569 251.732 884.699 Q251.732 891.805 253.537 895.37 Q255.366 898.911 258.977 898.911 Q262.611 898.911 264.417 895.37 Q266.246 891.805 266.246 884.699 Q266.246 877.569 264.417 874.027 Q262.611 870.462 258.977 870.462 M258.977 866.759 Q264.787 866.759 267.843 871.365 Q270.922 875.949 270.922 884.699 Q270.922 893.425 267.843 898.032 Q264.787 902.615 258.977 902.615 Q253.167 902.615 250.088 898.032 Q247.033 893.425 247.033 884.699 Q247.033 875.949 250.088 871.365 Q253.167 866.759 258.977 866.759 Z" fill="#000000" fill-rule="nonzero" fill-opacity="1"></path><path clip-path="url(#clip100)" d="M63.9319 589.91 Q60.3208 589.91 58.4921 593.474 Q56.6865 597.016 56.6865 604.146 Q56.6865 611.252 58.4921 614.817 Q60.3208 618.358 63.9319 618.358 Q67.5661 618.358 69.3717 614.817 Q71.2004 611.252 71.2004 604.146 Q71.2004 597.016 69.3717 593.474 Q67.5661 589.91 63.9319 589.91 M63.9319 586.206 Q69.742 586.206 72.7976 590.812 Q75.8763 595.396 75.8763 604.146 Q75.8763 612.872 72.7976 617.479 Q69.742 622.062 63.9319 622.062 Q58.1217 622.062 55.043 617.479 Q51.9875 612.872 51.9875 604.146 Q51.9875 595.396 55.043 590.812 Q58.1217 586.206 63.9319 586.206 Z" fill="#000000" fill-rule="nonzero" fill-opacity="1"></path><path clip-path="url(#clip100)" d="M84.0938 615.511 L88.978 615.511 L88.978 621.391 L84.0938 621.391 L84.0938 615.511 Z" fill="#000000" fill-rule="nonzero" fill-opacity="1"></path><path clip-path="url(#clip100)" d="M109.163 589.91 Q105.552 589.91 103.723 593.474 Q101.918 597.016 101.918 604.146 Q101.918 611.252 103.723 614.817 Q105.552 618.358 109.163 618.358 Q112.797 618.358 114.603 614.817 Q116.432 611.252 116.432 604.146 Q116.432 597.016 114.603 593.474 Q112.797 589.91 109.163 589.91 M109.163 586.206 Q114.973 586.206 118.029 590.812 Q121.107 595.396 121.107 604.146 Q121.107 612.872 118.029 617.479 Q114.973 622.062 109.163 622.062 Q103.353 622.062 100.274 617.479 Q97.2187 612.872 97.2187 604.146 Q97.2187 595.396 100.274 590.812 Q103.353 586.206 109.163 586.206 Z" fill="#000000" fill-rule="nonzero" fill-opacity="1"></path><path clip-path="url(#clip100)" d="M139.325 589.91 Q135.714 589.91 133.885 593.474 Q132.08 597.016 132.08 604.146 Q132.08 611.252 133.885 614.817 Q135.714 618.358 139.325 618.358 Q142.959 618.358 144.765 614.817 Q146.593 611.252 146.593 604.146 Q146.593 597.016 144.765 593.474 Q142.959 589.91 139.325 589.91 M139.325 586.206 Q145.135 586.206 148.191 590.812 Q151.269 595.396 151.269 604.146 Q151.269 612.872 148.191 617.479 Q145.135 622.062 139.325 622.062 Q133.515 622.062 130.436 617.479 Q127.381 612.872 127.381 604.146 Q127.381 595.396 130.436 590.812 Q133.515 586.206 139.325 586.206 Z" fill="#000000" fill-rule="nonzero" fill-opacity="1"></path><path clip-path="url(#clip100)" d="M169.487 589.91 Q165.876 589.91 164.047 593.474 Q162.242 597.016 162.242 604.146 Q162.242 611.252 164.047 614.817 Q165.876 618.358 169.487 618.358 Q173.121 618.358 174.927 614.817 Q176.755 611.252 176.755 604.146 Q176.755 597.016 174.927 593.474 Q173.121 589.91 169.487 589.91 M169.487 586.206 Q175.297 586.206 178.353 590.812 Q181.431 595.396 181.431 604.146 Q181.431 612.872 178.353 617.479 Q175.297 622.062 169.487 622.062 Q163.677 622.062 160.598 617.479 Q157.542 612.872 157.542 604.146 Q157.542 595.396 160.598 590.812 Q163.677 586.206 169.487 586.206 Z" fill="#000000" fill-rule="nonzero" fill-opacity="1"></path><path clip-path="url(#clip100)" d="M199.649 589.91 Q196.038 589.91 194.209 593.474 Q192.403 597.016 192.403 604.146 Q192.403 611.252 194.209 614.817 Q196.038 618.358 199.649 618.358 Q203.283 618.358 205.089 614.817 Q206.917 611.252 206.917 604.146 Q206.917 597.016 205.089 593.474 Q203.283 589.91 199.649 589.91 M199.649 586.206 Q205.459 586.206 208.514 590.812 Q211.593 595.396 211.593 604.146 Q211.593 612.872 208.514 617.479 Q205.459 622.062 199.649 622.062 Q193.839 622.062 190.76 617.479 Q187.704 612.872 187.704 604.146 Q187.704 595.396 190.76 590.812 Q193.839 586.206 199.649 586.206 Z" fill="#000000" fill-rule="nonzero" fill-opacity="1"></path><path clip-path="url(#clip100)" d="M218.63 586.831 L240.852 586.831 L240.852 588.822 L228.306 621.391 L223.422 621.391 L235.227 590.766 L218.63 590.766 L218.63 586.831 Z" fill="#000000" fill-rule="nonzero" fill-opacity="1"></path><path clip-path="url(#clip100)" d="M250.019 586.831 L268.375 586.831 L268.375 590.766 L254.301 590.766 L254.301 599.238 Q255.32 598.891 256.338 598.729 Q257.357 598.544 258.375 598.544 Q264.162 598.544 267.542 601.715 Q270.922 604.886 270.922 610.303 Q270.922 615.882 267.449 618.983 Q263.977 622.062 257.658 622.062 Q255.482 622.062 253.213 621.692 Q250.968 621.321 248.561 620.581 L248.561 615.882 Q250.644 617.016 252.866 617.571 Q255.088 618.127 257.565 618.127 Q261.57 618.127 263.908 616.021 Q266.246 613.914 266.246 610.303 Q266.246 606.692 263.908 604.585 Q261.57 602.479 257.565 602.479 Q255.69 602.479 253.815 602.896 Q251.963 603.312 250.019 604.192 L250.019 586.831 Z" fill="#000000" fill-rule="nonzero" fill-opacity="1"></path><path clip-path="url(#clip100)" d="M62.9365 309.357 Q59.3254 309.357 57.4967 312.921 Q55.6912 316.463 55.6912 323.593 Q55.6912 330.699 57.4967 334.264 Q59.3254 337.806 62.9365 337.806 Q66.5707 337.806 68.3763 334.264 Q70.205 330.699 70.205 323.593 Q70.205 316.463 68.3763 312.921 Q66.5707 309.357 62.9365 309.357 M62.9365 305.653 Q68.7467 305.653 71.8022 310.259 Q74.8809 314.843 74.8809 323.593 Q74.8809 332.319 71.8022 336.926 Q68.7467 341.509 62.9365 341.509 Q57.1264 341.509 54.0477 336.926 Q50.9921 332.319 50.9921 323.593 Q50.9921 314.843 54.0477 310.259 Q57.1264 305.653 62.9365 305.653 Z" fill="#000000" fill-rule="nonzero" fill-opacity="1"></path><path clip-path="url(#clip100)" d="M83.0984 334.958 L87.9827 334.958 L87.9827 340.838 L83.0984 340.838 L83.0984 334.958 Z" fill="#000000" fill-rule="nonzero" fill-opacity="1"></path><path clip-path="url(#clip100)" d="M108.168 309.357 Q104.557 309.357 102.728 312.921 Q100.922 316.463 100.922 323.593 Q100.922 330.699 102.728 334.264 Q104.557 337.806 108.168 337.806 Q111.802 337.806 113.608 334.264 Q115.436 330.699 115.436 323.593 Q115.436 316.463 113.608 312.921 Q111.802 309.357 108.168 309.357 M108.168 305.653 Q113.978 305.653 117.033 310.259 Q120.112 314.843 120.112 323.593 Q120.112 332.319 117.033 336.926 Q113.978 341.509 108.168 341.509 Q102.358 341.509 99.2789 336.926 Q96.2234 332.319 96.2234 323.593 Q96.2234 314.843 99.2789 310.259 Q102.358 305.653 108.168 305.653 Z" fill="#000000" fill-rule="nonzero" fill-opacity="1"></path><path clip-path="url(#clip100)" d="M138.33 309.357 Q134.719 309.357 132.89 312.921 Q131.084 316.463 131.084 323.593 Q131.084 330.699 132.89 334.264 Q134.719 337.806 138.33 337.806 Q141.964 337.806 143.769 334.264 Q145.598 330.699 145.598 323.593 Q145.598 316.463 143.769 312.921 Q141.964 309.357 138.33 309.357 M138.33 305.653 Q144.14 305.653 147.195 310.259 Q150.274 314.843 150.274 323.593 Q150.274 332.319 147.195 336.926 Q144.14 341.509 138.33 341.509 Q132.519 341.509 129.441 336.926 Q126.385 332.319 126.385 323.593 Q126.385 314.843 129.441 310.259 Q132.519 305.653 138.33 305.653 Z" fill="#000000" fill-rule="nonzero" fill-opacity="1"></path><path clip-path="url(#clip100)" d="M168.491 309.357 Q164.88 309.357 163.052 312.921 Q161.246 316.463 161.246 323.593 Q161.246 330.699 163.052 334.264 Q164.88 337.806 168.491 337.806 Q172.126 337.806 173.931 334.264 Q175.76 330.699 175.76 323.593 Q175.76 316.463 173.931 312.921 Q172.126 309.357 168.491 309.357 M168.491 305.653 Q174.302 305.653 177.357 310.259 Q180.436 314.843 180.436 323.593 Q180.436 332.319 177.357 336.926 Q174.302 341.509 168.491 341.509 Q162.681 341.509 159.603 336.926 Q156.547 332.319 156.547 323.593 Q156.547 314.843 159.603 310.259 Q162.681 305.653 168.491 305.653 Z" fill="#000000" fill-rule="nonzero" fill-opacity="1"></path><path clip-path="url(#clip100)" d="M189.464 336.903 L197.102 336.903 L197.102 310.537 L188.792 312.204 L188.792 307.945 L197.056 306.278 L201.732 306.278 L201.732 336.903 L209.371 336.903 L209.371 340.838 L189.464 340.838 L189.464 336.903 Z" fill="#000000" fill-rule="nonzero" fill-opacity="1"></path><path clip-path="url(#clip100)" d="M228.815 309.357 Q225.204 309.357 223.375 312.921 Q221.57 316.463 221.57 323.593 Q221.57 330.699 223.375 334.264 Q225.204 337.806 228.815 337.806 Q232.449 337.806 234.255 334.264 Q236.084 330.699 236.084 323.593 Q236.084 316.463 234.255 312.921 Q232.449 309.357 228.815 309.357 M228.815 305.653 Q234.625 305.653 237.681 310.259 Q240.76 314.843 240.76 323.593 Q240.76 332.319 237.681 336.926 Q234.625 341.509 228.815 341.509 Q223.005 341.509 219.926 336.926 Q216.871 332.319 216.871 323.593 Q216.871 314.843 219.926 310.259 Q223.005 305.653 228.815 305.653 Z" fill="#000000" fill-rule="nonzero" fill-opacity="1"></path><path clip-path="url(#clip100)" d="M258.977 309.357 Q255.366 309.357 253.537 312.921 Q251.732 316.463 251.732 323.593 Q251.732 330.699 253.537 334.264 Q255.366 337.806 258.977 337.806 Q262.611 337.806 264.417 334.264 Q266.246 330.699 266.246 323.593 Q266.246 316.463 264.417 312.921 Q262.611 309.357 258.977 309.357 M258.977 305.653 Q264.787 305.653 267.843 310.259 Q270.922 314.843 270.922 323.593 Q270.922 332.319 267.843 336.926 Q264.787 341.509 258.977 341.509 Q253.167 341.509 250.088 336.926 Q247.033 332.319 247.033 323.593 Q247.033 314.843 250.088 310.259 Q253.167 305.653 258.977 305.653 Z" fill="#000000" fill-rule="nonzero" fill-opacity="1"></path><polyline clip-path="url(#clip102)" style="stroke:#009af9; stroke-linecap:round; stroke-linejoin:round; stroke-width:4; stroke-opacity:1; fill:none" points="364.822,1444.46 493.491,1445.13 622.16,1445.38 750.829,1445.72 879.498,1445.15 1008.17,1444.49 1136.84,1444.49 1265.5,1441.81 1394.17,1436.46 1522.84,1436.46 1651.51,1415.05 1780.18,1433.68 1908.85,1286.63 2037.52,1433.68 2166.19,772.92 2294.85,87.9763 "></polyline>
</svg>