<svg xmlns="http://www.w3.org/2000/svg" xmlns:xlink="http://www.w3.org/1999/xlink" width="600" height="400" viewBox="0 0 2400 1600">
<defs>
  <clipPath id="clip020">
    <rect x="0" y="0" width="2400" height="1600"></rect>
  </clipPath>
</defs>
<path clip-path="url(#clip020)" d="M0 1600 L2400 1600 L2400 0 L0 0  Z" fill="#ffffff" fill-rule="evenodd" fill-opacity="1"></path>
<defs>
  <clipPath id="clip021">
    <rect x="480" y="0" width="1681" height="1600"></rect>
  </clipPath>
</defs>
<path clip-path="url(#clip020)" d="M156.598 1486.45 L2352.76 1486.45 L2352.76 47.2441 L156.598 47.2441  Z" fill="#ffffff" fill-rule="evenodd" fill-opacity="1"></path>
<defs>
  <clipPath id="clip022">
    <rect x="156" y="47" width="2197" height="1440"></rect>
  </clipPath>
</defs>
<polyline clip-path="url(#clip022)" style="stroke:#000000; stroke-linecap:round; stroke-linejoin:round; stroke-width:2; stroke-opacity:0.1; fill:none" points="430.167,1486.45 430.167,47.2441 "></polyline>
<polyline clip-path="url(#clip022)" style="stroke:#000000; stroke-linecap:round; stroke-linejoin:round; stroke-width:2; stroke-opacity:0.1; fill:none" points="852.992,1486.45 852.992,47.2441 "></polyline>
<polyline clip-path="url(#clip022)" style="stroke:#000000; stroke-linecap:round; stroke-linejoin:round; stroke-width:2; stroke-opacity:0.1; fill:none" points="1275.82,1486.45 1275.82,47.2441 "></polyline>
<polyline clip-path="url(#clip022)" style="stroke:#000000; stroke-linecap:round; stroke-linejoin:round; stroke-width:2; stroke-opacity:0.1; fill:none" points="1698.64,1486.45 1698.64,47.2441 "></polyline>
<polyline clip-path="url(#clip022)" style="stroke:#000000; stroke-linecap:round; stroke-linejoin:round; stroke-width:2; stroke-opacity:0.1; fill:none" points="2121.47,1486.45 2121.47,47.2441 "></polyline>
<polyline clip-path="url(#clip020)" style="stroke:#000000; stroke-linecap:round; stroke-linejoin:round; stroke-width:4; stroke-opacity:1; fill:none" points="156.598,1486.45 2352.76,1486.45 "></polyline>
<polyline clip-path="url(#clip020)" style="stroke:#000000; stroke-linecap:round; stroke-linejoin:round; stroke-width:4; stroke-opacity:1; fill:none" points="430.167,1486.45 430.167,1467.55 "></polyline>
<polyline clip-path="url(#clip020)" style="stroke:#000000; stroke-linecap:round; stroke-linejoin:round; stroke-width:4; stroke-opacity:1; fill:none" points="852.992,1486.45 852.992,1467.55 "></polyline>
<polyline clip-path="url(#clip020)" style="stroke:#000000; stroke-linecap:round; stroke-linejoin:round; stroke-width:4; stroke-opacity:1; fill:none" points="1275.82,1486.45 1275.82,1467.55 "></polyline>
<polyline clip-path="url(#clip020)" style="stroke:#000000; stroke-linecap:round; stroke-linejoin:round; stroke-width:4; stroke-opacity:1; fill:none" points="1698.64,1486.45 1698.64,1467.55 "></polyline>
<polyline clip-path="url(#clip020)" style="stroke:#000000; stroke-linecap:round; stroke-linejoin:round; stroke-width:4; stroke-opacity:1; fill:none" points="2121.47,1486.45 2121.47,1467.55 "></polyline>
<path clip-path="url(#clip020)" d="M404.854 1544.91 L412.493 1544.91 L412.493 1518.55 L404.183 1520.21 L404.183 1515.95 L412.447 1514.29 L417.123 1514.29 L417.123 1544.91 L424.762 1544.91 L424.762 1548.85 L404.854 1548.85 L404.854 1544.91 Z" fill="#000000" fill-rule="nonzero" fill-opacity="1"></path><path clip-path="url(#clip020)" d="M444.206 1517.37 Q440.595 1517.37 438.766 1520.93 Q436.961 1524.47 436.961 1531.6 Q436.961 1538.71 438.766 1542.27 Q440.595 1545.82 444.206 1545.82 Q447.84 1545.82 449.646 1542.27 Q451.474 1538.71 451.474 1531.6 Q451.474 1524.47 449.646 1520.93 Q447.84 1517.37 444.206 1517.37 M444.206 1513.66 Q450.016 1513.66 453.072 1518.27 Q456.15 1522.85 456.15 1531.6 Q456.15 1540.33 453.072 1544.94 Q450.016 1549.52 444.206 1549.52 Q438.396 1549.52 435.317 1544.94 Q432.261 1540.33 432.261 1531.6 Q432.261 1522.85 435.317 1518.27 Q438.396 1513.66 444.206 1513.66 Z" fill="#000000" fill-rule="nonzero" fill-opacity="1"></path><path clip-path="url(#clip020)" d="M831.766 1544.91 L848.085 1544.91 L848.085 1548.85 L826.141 1548.85 L826.141 1544.91 Q828.803 1542.16 833.386 1537.53 Q837.993 1532.88 839.173 1531.53 Q841.418 1529.01 842.298 1527.27 Q843.201 1525.51 843.201 1523.82 Q843.201 1521.07 841.256 1519.33 Q839.335 1517.6 836.233 1517.6 Q834.034 1517.6 831.581 1518.36 Q829.15 1519.13 826.372 1520.68 L826.372 1515.95 Q829.196 1514.82 831.65 1514.24 Q834.104 1513.66 836.141 1513.66 Q841.511 1513.66 844.705 1516.35 Q847.9 1519.03 847.9 1523.52 Q847.9 1525.65 847.09 1527.57 Q846.303 1529.47 844.196 1532.07 Q843.618 1532.74 840.516 1535.95 Q837.414 1539.15 831.766 1544.91 Z" fill="#000000" fill-rule="nonzero" fill-opacity="1"></path><path clip-path="url(#clip020)" d="M867.9 1517.37 Q864.289 1517.37 862.46 1520.93 Q860.654 1524.47 860.654 1531.6 Q860.654 1538.71 862.46 1542.27 Q864.289 1545.82 867.9 1545.82 Q871.534 1545.82 873.34 1542.27 Q875.168 1538.71 875.168 1531.6 Q875.168 1524.47 873.34 1520.93 Q871.534 1517.37 867.9 1517.37 M867.9 1513.66 Q873.71 1513.66 876.765 1518.27 Q879.844 1522.85 879.844 1531.6 Q879.844 1540.33 876.765 1544.94 Q873.71 1549.52 867.9 1549.52 Q862.09 1549.52 859.011 1544.94 Q855.955 1540.33 855.955 1531.6 Q855.955 1522.85 859.011 1518.27 Q862.09 1513.66 867.9 1513.66 Z" fill="#000000" fill-rule="nonzero" fill-opacity="1"></path><path clip-path="url(#clip020)" d="M1264.66 1530.21 Q1268.02 1530.93 1269.89 1533.2 Q1271.79 1535.47 1271.79 1538.8 Q1271.79 1543.92 1268.27 1546.72 Q1264.75 1549.52 1258.27 1549.52 Q1256.1 1549.52 1253.78 1549.08 Q1251.49 1548.66 1249.04 1547.81 L1249.04 1543.29 Q1250.98 1544.43 1253.3 1545.01 Q1255.61 1545.58 1258.13 1545.58 Q1262.53 1545.58 1264.82 1543.85 Q1267.14 1542.11 1267.14 1538.8 Q1267.14 1535.75 1264.99 1534.03 Q1262.86 1532.3 1259.04 1532.3 L1255.01 1532.3 L1255.01 1528.45 L1259.22 1528.45 Q1262.67 1528.45 1264.5 1527.09 Q1266.33 1525.7 1266.33 1523.11 Q1266.33 1520.45 1264.43 1519.03 Q1262.55 1517.6 1259.04 1517.6 Q1257.11 1517.6 1254.92 1518.01 Q1252.72 1518.43 1250.08 1519.31 L1250.08 1515.14 Q1252.74 1514.4 1255.05 1514.03 Q1257.39 1513.66 1259.45 1513.66 Q1264.78 1513.66 1267.88 1516.09 Q1270.98 1518.5 1270.98 1522.62 Q1270.98 1525.49 1269.34 1527.48 Q1267.69 1529.45 1264.66 1530.21 Z" fill="#000000" fill-rule="nonzero" fill-opacity="1"></path><path clip-path="url(#clip020)" d="M1290.66 1517.37 Q1287.05 1517.37 1285.22 1520.93 Q1283.41 1524.47 1283.41 1531.6 Q1283.41 1538.71 1285.22 1542.27 Q1287.05 1545.82 1290.66 1545.82 Q1294.29 1545.82 1296.1 1542.27 Q1297.92 1538.71 1297.92 1531.6 Q1297.92 1524.47 1296.1 1520.93 Q1294.29 1517.37 1290.66 1517.37 M1290.66 1513.66 Q1296.47 1513.66 1299.52 1518.27 Q1302.6 1522.85 1302.6 1531.6 Q1302.6 1540.33 1299.52 1544.94 Q1296.47 1549.52 1290.66 1549.52 Q1284.85 1549.52 1281.77 1544.94 Q1278.71 1540.33 1278.71 1531.6 Q1278.71 1522.85 1281.77 1518.27 Q1284.85 1513.66 1290.66 1513.66 Z" fill="#000000" fill-rule="nonzero" fill-opacity="1"></path><path clip-path="url(#clip020)" d="M1686.82 1518.36 L1675.01 1536.81 L1686.82 1536.81 L1686.82 1518.36 M1685.59 1514.29 L1691.47 1514.29 L1691.47 1536.81 L1696.4 1536.81 L1696.4 1540.7 L1691.47 1540.7 L1691.47 1548.85 L1686.82 1548.85 L1686.82 1540.7 L1671.21 1540.7 L1671.21 1536.19 L1685.59 1514.29 Z" fill="#000000" fill-rule="nonzero" fill-opacity="1"></path><path clip-path="url(#clip020)" d="M1714.13 1517.37 Q1710.52 1517.37 1708.69 1520.93 Q1706.88 1524.47 1706.88 1531.6 Q1706.88 1538.71 1708.69 1542.27 Q1710.52 1545.82 1714.13 1545.82 Q1717.76 1545.82 1719.57 1542.27 Q1721.4 1538.71 1721.4 1531.6 Q1721.4 1524.47 1719.57 1520.93 Q1717.76 1517.37 1714.13 1517.37 M1714.13 1513.66 Q1719.94 1513.66 1723 1518.27 Q1726.07 1522.85 1726.07 1531.6 Q1726.07 1540.33 1723 1544.94 Q1719.94 1549.52 1714.13 1549.52 Q1708.32 1549.52 1705.24 1544.94 Q1702.19 1540.33 1702.19 1531.6 Q1702.19 1522.85 1705.24 1518.27 Q1708.32 1513.66 1714.13 1513.66 Z" fill="#000000" fill-rule="nonzero" fill-opacity="1"></path><path clip-path="url(#clip020)" d="M2096.17 1514.29 L2114.53 1514.29 L2114.53 1518.22 L2100.45 1518.22 L2100.45 1526.7 Q2101.47 1526.35 2102.49 1526.19 Q2103.51 1526 2104.53 1526 Q2110.31 1526 2113.69 1529.17 Q2117.07 1532.34 2117.07 1537.76 Q2117.07 1543.34 2113.6 1546.44 Q2110.13 1549.52 2103.81 1549.52 Q2101.63 1549.52 2099.36 1549.15 Q2097.12 1548.78 2094.71 1548.04 L2094.71 1543.34 Q2096.79 1544.47 2099.02 1545.03 Q2101.24 1545.58 2103.72 1545.58 Q2107.72 1545.58 2110.06 1543.48 Q2112.4 1541.37 2112.4 1537.76 Q2112.4 1534.15 2110.06 1532.04 Q2107.72 1529.94 2103.72 1529.94 Q2101.84 1529.94 2099.97 1530.35 Q2098.11 1530.77 2096.17 1531.65 L2096.17 1514.29 Z" fill="#000000" fill-rule="nonzero" fill-opacity="1"></path><path clip-path="url(#clip020)" d="M2136.28 1517.37 Q2132.67 1517.37 2130.85 1520.93 Q2129.04 1524.47 2129.04 1531.6 Q2129.04 1538.71 2130.85 1542.27 Q2132.67 1545.82 2136.28 1545.82 Q2139.92 1545.82 2141.72 1542.27 Q2143.55 1538.71 2143.55 1531.6 Q2143.55 1524.47 2141.72 1520.93 Q2139.92 1517.37 2136.28 1517.37 M2136.28 1513.66 Q2142.1 1513.66 2145.15 1518.27 Q2148.23 1522.85 2148.23 1531.6 Q2148.23 1540.33 2145.15 1544.94 Q2142.1 1549.52 2136.28 1549.52 Q2130.47 1549.52 2127.4 1544.94 Q2124.34 1540.33 2124.34 1531.6 Q2124.34 1522.85 2127.4 1518.27 Q2130.47 1513.66 2136.28 1513.66 Z" fill="#000000" fill-rule="nonzero" fill-opacity="1"></path><polyline clip-path="url(#clip022)" style="stroke:#000000; stroke-linecap:round; stroke-linejoin:round; stroke-width:2; stroke-opacity:0.1; fill:none" points="156.598,1445.72 2352.76,1445.72 "></polyline>
<polyline clip-path="url(#clip022)" style="stroke:#000000; stroke-linecap:round; stroke-linejoin:round; stroke-width:2; stroke-opacity:0.1; fill:none" points="156.598,1225.64 2352.76,1225.64 "></polyline>
<polyline clip-path="url(#clip022)" style="stroke:#000000; stroke-linecap:round; stroke-linejoin:round; stroke-width:2; stroke-opacity:0.1; fill:none" points="156.598,1005.56 2352.76,1005.56 "></polyline>
<polyline clip-path="url(#clip022)" style="stroke:#000000; stroke-linecap:round; stroke-linejoin:round; stroke-width:2; stroke-opacity:0.1; fill:none" points="156.598,785.489 2352.76,785.489 "></polyline>
<polyline clip-path="url(#clip022)" style="stroke:#000000; stroke-linecap:round; stroke-linejoin:round; stroke-width:2; stroke-opacity:0.1; fill:none" points="156.598,565.413 2352.76,565.413 "></polyline>
<polyline clip-path="url(#clip022)" style="stroke:#000000; stroke-linecap:round; stroke-linejoin:round; stroke-width:2; stroke-opacity:0.1; fill:none" points="156.598,345.338 2352.76,345.338 "></polyline>
<polyline clip-path="url(#clip022)" style="stroke:#000000; stroke-linecap:round; stroke-linejoin:round; stroke-width:2; stroke-opacity:0.1; fill:none" points="156.598,125.262 2352.76,125.262 "></polyline>
<polyline clip-path="url(#clip020)" style="stroke:#000000; stroke-linecap:round; stroke-linejoin:round; stroke-width:4; stroke-opacity:1; fill:none" points="156.598,1486.45 156.598,47.2441 "></polyline>
<polyline clip-path="url(#clip020)" style="stroke:#000000; stroke-linecap:round; stroke-linejoin:round; stroke-width:4; stroke-opacity:1; fill:none" points="156.598,1445.72 175.496,1445.72 "></polyline>
<polyline clip-path="url(#clip020)" style="stroke:#000000; stroke-linecap:round; stroke-linejoin:round; stroke-width:4; stroke-opacity:1; fill:none" points="156.598,1225.64 175.496,1225.64 "></polyline>
<polyline clip-path="url(#clip020)" style="stroke:#000000; stroke-linecap:round; stroke-linejoin:round; stroke-width:4; stroke-opacity:1; fill:none" points="156.598,1005.56 175.496,1005.56 "></polyline>
<polyline clip-path="url(#clip020)" style="stroke:#000000; stroke-linecap:round; stroke-linejoin:round; stroke-width:4; stroke-opacity:1; fill:none" points="156.598,785.489 175.496,785.489 "></polyline>
<polyline clip-path="url(#clip020)" style="stroke:#000000; stroke-linecap:round; stroke-linejoin:round; stroke-width:4; stroke-opacity:1; fill:none" points="156.598,565.413 175.496,565.413 "></polyline>
<polyline clip-path="url(#clip020)" style="stroke:#000000; stroke-linecap:round; stroke-linejoin:round; stroke-width:4; stroke-opacity:1; fill:none" points="156.598,345.338 175.496,345.338 "></polyline>
<polyline clip-path="url(#clip020)" style="stroke:#000000; stroke-linecap:round; stroke-linejoin:round; stroke-width:4; stroke-opacity:1; fill:none" points="156.598,125.262 175.496,125.262 "></polyline>
<path clip-path="url(#clip020)" d="M63.4226 1431.51 Q59.8115 1431.51 57.9828 1435.08 Q56.1773 1438.62 56.1773 1445.75 Q56.1773 1452.86 57.9828 1456.42 Q59.8115 1459.96 63.4226 1459.96 Q67.0569 1459.96 68.8624 1456.42 Q70.6911 1452.86 70.6911 1445.75 Q70.6911 1438.62 68.8624 1435.08 Q67.0569 1431.51 63.4226 1431.51 M63.4226 1427.81 Q69.2328 1427.81 72.2883 1432.42 Q75.367 1437 75.367 1445.75 Q75.367 1454.48 72.2883 1459.08 Q69.2328 1463.67 63.4226 1463.67 Q57.6125 1463.67 54.5338 1459.08 Q51.4782 1454.48 51.4782 1445.75 Q51.4782 1437 54.5338 1432.42 Q57.6125 1427.81 63.4226 1427.81 Z" fill="#000000" fill-rule="nonzero" fill-opacity="1"></path><path clip-path="url(#clip020)" d="M83.5845 1457.12 L88.4688 1457.12 L88.4688 1463 L83.5845 1463 L83.5845 1457.12 Z" fill="#000000" fill-rule="nonzero" fill-opacity="1"></path><path clip-path="url(#clip020)" d="M108.654 1431.51 Q105.043 1431.51 103.214 1435.08 Q101.409 1438.62 101.409 1445.75 Q101.409 1452.86 103.214 1456.42 Q105.043 1459.96 108.654 1459.96 Q112.288 1459.96 114.094 1456.42 Q115.922 1452.86 115.922 1445.75 Q115.922 1438.62 114.094 1435.08 Q112.288 1431.51 108.654 1431.51 M108.654 1427.81 Q114.464 1427.81 117.52 1432.42 Q120.598 1437 120.598 1445.75 Q120.598 1454.48 117.52 1459.08 Q114.464 1463.67 108.654 1463.67 Q102.844 1463.67 99.765 1459.08 Q96.7095 1454.48 96.7095 1445.75 Q96.7095 1437 99.765 1432.42 Q102.844 1427.81 108.654 1427.81 Z" fill="#000000" fill-rule="nonzero" fill-opacity="1"></path><path clip-path="url(#clip020)" d="M64.6495 1211.44 Q61.0384 1211.44 59.2097 1215 Q57.4041 1218.55 57.4041 1225.67 Q57.4041 1232.78 59.2097 1236.35 Q61.0384 1239.89 64.6495 1239.89 Q68.2837 1239.89 70.0892 1236.35 Q71.9179 1232.78 71.9179 1225.67 Q71.9179 1218.55 70.0892 1215 Q68.2837 1211.44 64.6495 1211.44 M64.6495 1207.74 Q70.4596 1207.74 73.5152 1212.34 Q76.5938 1216.92 76.5938 1225.67 Q76.5938 1234.4 73.5152 1239.01 Q70.4596 1243.59 64.6495 1243.59 Q58.8393 1243.59 55.7606 1239.01 Q52.7051 1234.4 52.7051 1225.67 Q52.7051 1216.92 55.7606 1212.34 Q58.8393 1207.74 64.6495 1207.74 Z" fill="#000000" fill-rule="nonzero" fill-opacity="1"></path><path clip-path="url(#clip020)" d="M84.8114 1237.04 L89.6956 1237.04 L89.6956 1242.92 L84.8114 1242.92 L84.8114 1237.04 Z" fill="#000000" fill-rule="nonzero" fill-opacity="1"></path><path clip-path="url(#clip020)" d="M100.691 1238.98 L108.33 1238.98 L108.33 1212.62 L100.02 1214.29 L100.02 1210.03 L108.283 1208.36 L112.959 1208.36 L112.959 1238.98 L120.598 1238.98 L120.598 1242.92 L100.691 1242.92 L100.691 1238.98 Z" fill="#000000" fill-rule="nonzero" fill-opacity="1"></path><path clip-path="url(#clip020)" d="M65.0198 991.363 Q61.4087 991.363 59.58 994.928 Q57.7745 998.47 57.7745 1005.6 Q57.7745 1012.71 59.58 1016.27 Q61.4087 1019.81 65.0198 1019.81 Q68.6541 1019.81 70.4596 1016.27 Q72.2883 1012.71 72.2883 1005.6 Q72.2883 998.47 70.4596 994.928 Q68.6541 991.363 65.0198 991.363 M65.0198 987.66 Q70.83 987.66 73.8855 992.266 Q76.9642 996.849 76.9642 1005.6 Q76.9642 1014.33 73.8855 1018.93 Q70.83 1023.52 65.0198 1023.52 Q59.2097 1023.52 56.131 1018.93 Q53.0754 1014.33 53.0754 1005.6 Q53.0754 996.849 56.131 992.266 Q59.2097 987.66 65.0198 987.66 Z" fill="#000000" fill-rule="nonzero" fill-opacity="1"></path><path clip-path="url(#clip020)" d="M85.1818 1016.96 L90.066 1016.96 L90.066 1022.84 L85.1818 1022.84 L85.1818 1016.96 Z" fill="#000000" fill-rule="nonzero" fill-opacity="1"></path><path clip-path="url(#clip020)" d="M104.279 1018.91 L120.598 1018.91 L120.598 1022.84 L98.6539 1022.84 L98.6539 1018.91 Q101.316 1016.15 105.899 1011.53 Q110.506 1006.87 111.686 1005.53 Q113.932 1003.01 114.811 1001.27 Q115.714 999.511 115.714 997.821 Q115.714 995.067 113.77 993.331 Q111.848 991.595 108.746 991.595 Q106.547 991.595 104.094 992.359 Q101.663 993.122 98.8854 994.673 L98.8854 989.951 Q101.709 988.817 104.163 988.238 Q106.617 987.66 108.654 987.66 Q114.024 987.66 117.219 990.345 Q120.413 993.03 120.413 997.521 Q120.413 999.65 119.603 1001.57 Q118.816 1003.47 116.709 1006.06 Q116.131 1006.73 113.029 1009.95 Q109.927 1013.15 104.279 1018.91 Z" fill="#000000" fill-rule="nonzero" fill-opacity="1"></path><path clip-path="url(#clip020)" d="M64.0708 771.288 Q60.4597 771.288 58.631 774.852 Q56.8254 778.394 56.8254 785.524 Q56.8254 792.63 58.631 796.195 Q60.4597 799.737 64.0708 799.737 Q67.705 799.737 69.5105 796.195 Q71.3392 792.63 71.3392 785.524 Q71.3392 778.394 69.5105 774.852 Q67.705 771.288 64.0708 771.288 M64.0708 767.584 Q69.8809 767.584 72.9365 772.19 Q76.0151 776.774 76.0151 785.524 Q76.0151 794.25 72.9365 798.857 Q69.8809 803.44 64.0708 803.44 Q58.2606 803.44 55.1819 798.857 Q52.1264 794.25 52.1264 785.524 Q52.1264 776.774 55.1819 772.19 Q58.2606 767.584 64.0708 767.584 Z" fill="#000000" fill-rule="nonzero" fill-opacity="1"></path><path clip-path="url(#clip020)" d="M84.2327 796.889 L89.1169 796.889 L89.1169 802.769 L84.2327 802.769 L84.2327 796.889 Z" fill="#000000" fill-rule="nonzero" fill-opacity="1"></path><path clip-path="url(#clip020)" d="M113.469 784.135 Q116.825 784.852 118.7 787.121 Q120.598 789.389 120.598 792.723 Q120.598 797.838 117.08 800.639 Q113.561 803.44 107.08 803.44 Q104.904 803.44 102.589 803 Q100.297 802.584 97.8437 801.727 L97.8437 797.213 Q99.7882 798.348 102.103 798.926 Q104.418 799.505 106.941 799.505 Q111.339 799.505 113.631 797.769 Q115.945 796.033 115.945 792.723 Q115.945 789.667 113.793 787.954 Q111.663 786.218 107.844 786.218 L103.816 786.218 L103.816 782.375 L108.029 782.375 Q111.478 782.375 113.307 781.01 Q115.135 779.621 115.135 777.028 Q115.135 774.366 113.237 772.954 Q111.362 771.519 107.844 771.519 Q105.922 771.519 103.723 771.936 Q101.524 772.352 98.8854 773.232 L98.8854 769.065 Q101.547 768.325 103.862 767.954 Q106.2 767.584 108.26 767.584 Q113.584 767.584 116.686 770.014 Q119.788 772.422 119.788 776.542 Q119.788 779.413 118.145 781.403 Q116.501 783.371 113.469 784.135 Z" fill="#000000" fill-rule="nonzero" fill-opacity="1"></path><path clip-path="url(#clip020)" d="M62.9365 551.212 Q59.3254 551.212 57.4967 554.777 Q55.6912 558.318 55.6912 565.448 Q55.6912 572.554 57.4967 576.119 Q59.3254 579.661 62.9365 579.661 Q66.5707 579.661 68.3763 576.119 Q70.205 572.554 70.205 565.448 Q70.205 558.318 68.3763 554.777 Q66.5707 551.212 62.9365 551.212 M62.9365 547.508 Q68.7467 547.508 71.8022 552.115 Q74.8809 556.698 74.8809 565.448 Q74.8809 574.175 71.8022 578.781 Q68.7467 583.365 62.9365 583.365 Q57.1264 583.365 54.0477 578.781 Q50.9921 574.175 50.9921 565.448 Q50.9921 556.698 54.0477 552.115 Q57.1264 547.508 62.9365 547.508 Z" fill="#000000" fill-rule="nonzero" fill-opacity="1"></path><path clip-path="url(#clip020)" d="M83.0984 576.814 L87.9827 576.814 L87.9827 582.693 L83.0984 582.693 L83.0984 576.814 Z" fill="#000000" fill-rule="nonzero" fill-opacity="1"></path><path clip-path="url(#clip020)" d="M111.015 552.207 L99.2095 570.656 L111.015 570.656 L111.015 552.207 M109.788 548.133 L115.668 548.133 L115.668 570.656 L120.598 570.656 L120.598 574.545 L115.668 574.545 L115.668 582.693 L111.015 582.693 L111.015 574.545 L95.4132 574.545 L95.4132 570.031 L109.788 548.133 Z" fill="#000000" fill-rule="nonzero" fill-opacity="1"></path><path clip-path="url(#clip020)" d="M64.418 331.136 Q60.8069 331.136 58.9782 334.701 Q57.1726 338.243 57.1726 345.372 Q57.1726 352.479 58.9782 356.044 Q60.8069 359.585 64.418 359.585 Q68.0522 359.585 69.8578 356.044 Q71.6865 352.479 71.6865 345.372 Q71.6865 338.243 69.8578 334.701 Q68.0522 331.136 64.418 331.136 M64.418 327.433 Q70.2281 327.433 73.2837 332.039 Q76.3624 336.622 76.3624 345.372 Q76.3624 354.099 73.2837 358.706 Q70.2281 363.289 64.418 363.289 Q58.6078 363.289 55.5291 358.706 Q52.4736 354.099 52.4736 345.372 Q52.4736 336.622 55.5291 332.039 Q58.6078 327.433 64.418 327.433 Z" fill="#000000" fill-rule="nonzero" fill-opacity="1"></path><path clip-path="url(#clip020)" d="M84.5799 356.738 L89.4641 356.738 L89.4641 362.618 L84.5799 362.618 L84.5799 356.738 Z" fill="#000000" fill-rule="nonzero" fill-opacity="1"></path><path clip-path="url(#clip020)" d="M99.6956 328.058 L118.052 328.058 L118.052 331.993 L103.978 331.993 L103.978 340.465 Q104.996 340.118 106.015 339.956 Q107.033 339.771 108.052 339.771 Q113.839 339.771 117.219 342.942 Q120.598 346.113 120.598 351.53 Q120.598 357.108 117.126 360.21 Q113.654 363.289 107.334 363.289 Q105.159 363.289 102.89 362.919 Q100.645 362.548 98.2372 361.808 L98.2372 357.108 Q100.321 358.243 102.543 358.798 Q104.765 359.354 107.242 359.354 Q111.246 359.354 113.584 357.247 Q115.922 355.141 115.922 351.53 Q115.922 347.919 113.584 345.812 Q111.246 343.706 107.242 343.706 Q105.367 343.706 103.492 344.122 Q101.64 344.539 99.6956 345.419 L99.6956 328.058 Z" fill="#000000" fill-rule="nonzero" fill-opacity="1"></path><path clip-path="url(#clip020)" d="M63.2606 111.061 Q59.6495 111.061 57.8208 114.626 Q56.0152 118.167 56.0152 125.297 Q56.0152 132.403 57.8208 135.968 Q59.6495 139.51 63.2606 139.51 Q66.8948 139.51 68.7004 135.968 Q70.5291 132.403 70.5291 125.297 Q70.5291 118.167 68.7004 114.626 Q66.8948 111.061 63.2606 111.061 M63.2606 107.357 Q69.0707 107.357 72.1263 111.964 Q75.205 116.547 75.205 125.297 Q75.205 134.024 72.1263 138.63 Q69.0707 143.213 63.2606 143.213 Q57.4504 143.213 54.3717 138.63 Q51.3162 134.024 51.3162 125.297 Q51.3162 116.547 54.3717 111.964 Q57.4504 107.357 63.2606 107.357 Z" fill="#000000" fill-rule="nonzero" fill-opacity="1"></path><path clip-path="url(#clip020)" d="M83.4225 136.663 L88.3067 136.663 L88.3067 142.542 L83.4225 142.542 L83.4225 136.663 Z" fill="#000000" fill-rule="nonzero" fill-opacity="1"></path><path clip-path="url(#clip020)" d="M109.071 123.399 Q105.922 123.399 104.071 125.551 Q102.242 127.704 102.242 131.454 Q102.242 135.181 104.071 137.357 Q105.922 139.51 109.071 139.51 Q112.219 139.51 114.047 137.357 Q115.899 135.181 115.899 131.454 Q115.899 127.704 114.047 125.551 Q112.219 123.399 109.071 123.399 M118.353 108.746 L118.353 113.005 Q116.594 112.172 114.788 111.732 Q113.006 111.292 111.246 111.292 Q106.617 111.292 104.163 114.417 Q101.733 117.542 101.385 123.862 Q102.751 121.848 104.811 120.783 Q106.871 119.695 109.348 119.695 Q114.557 119.695 117.566 122.866 Q120.598 126.014 120.598 131.454 Q120.598 136.778 117.45 139.996 Q114.302 143.213 109.071 143.213 Q103.075 143.213 99.9039 138.63 Q96.7326 134.024 96.7326 125.297 Q96.7326 117.102 100.621 112.241 Q104.51 107.357 111.061 107.357 Q112.82 107.357 114.603 107.704 Q116.408 108.052 118.353 108.746 Z" fill="#000000" fill-rule="nonzero" fill-opacity="1"></path><polyline clip-path="url(#clip022)" style="stroke:#009af9; stroke-linecap:round; stroke-linejoin:round; stroke-width:4; stroke-opacity:1; fill:none" points="218.754,1167.32 261.036,1306.73 303.319,1376.28 345.601,1411.02 387.884,1428.37 430.167,1437.04 472.449,1441.38 514.732,1443.55 557.014,1444.63 599.297,1445.17 641.58,1445.44 683.862,1445.58 726.145,1445.65 768.427,1445.68 810.71,1445.7 852.992,1445.71 895.275,1445.71 937.558,1445.71 979.84,1445.71 1022.12,1445.72 1064.41,1445.72 1106.69,1445.72 1148.97,1445.72 1191.25,1445.72 1233.54,1445.72 1275.82,1445.72 1318.1,1445.72 1360.38,1445.71 1402.67,1445.71 1444.95,1445.71 1487.23,1445.71 1529.51,1445.71 1571.8,1445.68 1614.08,1445.71 1656.36,1445.58 1698.64,1445.45 1740.93,1445.71 1783.21,1445.18 1825.49,1444.11 1867.77,1445.18 1910.06,1437.66 1952.34,1429.06 1994.62,1429.06 2036.9,1394.68 2079.19,1427.98 2121.47,1188.35 2163.75,1188.35 2206.04,87.9763 2248.32,1188.35 2290.6,1188.35 "></polyline>
</svg>